<?xml version="1.0" encoding="utf-8"?>
<!-- Generator: Adobe Illustrator 22.1.0, SVG Export Plug-In . SVG Version: 6.00 Build 0)  -->
<svg version="1.1" id="Layer_1" xmlns="http://www.w3.org/2000/svg" xmlns:xlink="http://www.w3.org/1999/xlink" x="0px" y="0px"
	 viewBox="0 0 841.9 402.3" style="enable-background:new 0 0 841.9 402.3;" xml:space="preserve">
<style type="text/css">
	.st0{fill:#333333;}
</style>
<g>
	<path class="st0" d="M279.7,67.8c-52.3,5.6-96.1,38.9-116,84.7l-0.2,0.4c-2.7,5.6,7.5,5.4,7.5,5.4s69,0,78.4,0
		c9.4,0,10.1-7.2,10.1-7.2l24.9-77.6C286.6,66.6,279.7,67.8,279.7,67.8z M269.9,85l-18.2,57.8c0,0-0.6,5-7.9,5c-7.3,0-61.2,0-61.2,0
		s-6,0.3-3.7-4l0.2-0.3c16-31.3,54.1-56.8,87.1-62.9C266.2,80.5,271.6,79.6,269.9,85z"/>
	<path class="st0" d="M303.1,73.6l28,79.7c0,0,0.7,4.9,10.4,4.9c9.7,0,78.4,0.3,78.4,0.3s10.5,0.2,7.8-5.6l-0.2-0.4
		c-20.5-47.2-65.6-79-119.5-84.7C308,67.8,300.9,66.6,303.1,73.6z M321.9,80.9c34,6.3,73.2,29.9,89.7,62.2l0.2,0.3
		c2.3,4.4-3.8,4.1-3.8,4.1s-55.5,0-63,0c-7.6,0-8.1-5.1-8.1-5.1l-18.7-57C316.4,80,321.9,80.9,321.9,80.9z"/>
	<path class="st0" d="M155.2,177.5c-10.6,51.5,8.7,102.5,46.3,135.3l0.3,0.3c4.5,4.3,7.4-5.5,7.4-5.5s20.5-64.6,23.4-73.5
		c2.9-8.9-4.3-12-4.3-12L162,174.7C156.2,170.6,155.2,177.5,155.2,177.5z M168.6,192.7l49.5,34.9c0,0,4.6,2.9,3.2,7.5
		c-2.1,7-18.6,58.3-18.6,58.3s-1.6,5.8-4.9,2.3l-0.3-0.2c-24.9-24.8-39.4-69-35.2-102.3C162.4,193.2,164,189.4,168.6,192.7z"/>
	<path class="st0" d="M225.5,330.3c45.3,26.7,101.2,24.8,144.5-0.2l0.4-0.2c5.5-2.9-4.2-8.8-4.2-8.8s-54.5-40.2-62.1-45.8
		c-7.5-5.6-12.7,0.2-12.7,0.2l-66.2,47.6C219.2,327.2,225.5,330.3,225.5,330.3z M242.1,321.9l49-35.6c0,0,6.3-2.8,10.2-0.1
		c6,4.2,50.3,36.1,50.3,36.1s4.9,3.3,0.6,5.4l-0.3,0.2c-31.5,15.6-81.2,14.8-111.3,0C240.6,328,237.6,325.2,242.1,321.9z"/>
	<path class="st0" d="M429.3,174.7L363,222.1c0,0-7.1,3.1-4.3,12c2.9,8.9,26.3,75,26.3,75s2.9,9.8,7.4,5.5l0.3-0.3
		c37.6-32.9,54-85.3,43.4-136.8C436.2,177.5,435.2,170.6,429.3,174.7z M429,193.2c4.2,33.3-7.3,78.9-32.3,103.7l-0.3,0.2
		c-3.4,3.4-4.9-2.3-4.9-2.3s-19.4-52.7-21.5-59.8c-1.4-4.6,3.2-7.5,3.2-7.5l49.5-34.9C427.4,189.4,429,193.2,429,193.2z"/>
	<path class="st0" d="M426.4,163.6c0,0-95.3,0-97.2,0s-4.4-7.4-4.4-7.4s-28.3-84.6-29.4-86.1c-1.1-1.5-2.2-0.2-2.2-0.2l-27,84.6
		c-1.3,7.4-6.8,9.2-6.8,9.2s-92.9,0.2-95.5,0.2c-2.6,0-1.3,3.9-1.3,3.9s73.3,51.7,77.4,54.7s2.2,5.7,2.2,5.7l-28.8,89
		c-0.2,4.6,4.1,2,4.1,2s71.5-52.1,75.2-54.3s6.8-0.2,6.8-0.2s74.4,53,78.5,55.4c4.1,1.3,2.4-3.3,2.4-3.3s-28.3-80.2-30.3-86.1
		c-2-5.9,2-7.8,2-7.8s72.8-52.1,76.5-54.7C432.3,165.4,426.4,163.6,426.4,163.6z M399.4,176.1l-60,42.7c0,0-2.8,2-1.1,6.5
		c1.7,4.5,23.2,64.8,23.2,64.8s2.5,8.5-2,5.4c-4.5-3.1-60.3-43-60.3-43s-3.4-2.5-7.6,0.8c-4.2,3.4-54.6,39.9-54.6,39.9
		s-9.6,6.5-6.2-1.7c3.4-8.2,21.8-65.7,21.8-65.7s2-4.5-2-7.4c-4-2.8-59.4-42.5-59.4-42.5v-2.3l73.3,0.3c0,0,5.7,3.1,9.3-11.3
		L293,102c0,0,1.7-7.1,4,0.3c2.3,7.4,21.2,64.8,21.2,64.8s1.7,7.6,7.4,7.6c5.7,0,73.9,0,73.9,0V176.1z"/>
	<path class="st0" d="M596.8,190.5c-11.2,10.1-23.5,22.4-23.5,22.4h-2.9c0,0-14.4-17-30.7-14.4c-15.9,0.2-24.4,8.4-28.9,16.6
		c-0.6,1.2-1.2,2.3-1.7,3.5c-0.5,1.1-1,2.3-1.4,3.5c-0.4,1.2-0.7,2.4-0.9,3.6c-1,3.6-0.6,7.6-0.1,11c0.2,1.2,0.5,2.4,0.8,3.6
		c1.3,4.8,3.6,9.4,6.6,13.4c1,1.3,2.1,2.5,3.2,3.6c12.2,11.9,29.3,10.6,29.3,10.6s41.9,0,47.3,0c5.4,0,3.6-4.3,3.6-4.3
		c-9.4-31.8,0-64.3,2.5-71.5C602.6,184.7,596.8,190.5,596.8,190.5z M581.2,258.2c-6.4-0.2-5.1-0.1-5.1-0.1l-32-0.8
		c0,0-12.2,0.4-20.4-7.9c-1-1-2-2.2-2.9-3.5c-4.1-7.1-5.9-15.7-2.5-23.7c0.4-1,1-2,1.7-3.1c3.4-5.2,9.6-10.4,21.4-10.5
		c0,0,13.3-0.3,21.1,9.8c0,0,5.7,7.3,9.8,8.1c0,0,2.4-0.5,6.8-4.1c0,0,5.4-6.8,5.1-1.4c-0.3,5.4-1.6,16.5,2.7,32.8
		C586.9,253.8,587.6,258.4,581.2,258.2z"/>
	<path class="st0" d="M615.6,154.1c-5.2-4.1-8.7-7-8.7-7s-61.4-49.8-133.6-1.8l-28.5,19.1c0,0-4.7,2.9-2.9,8.3s11.2,51.6-4,85.9
		c0,0-2.7,7.6,0.4,14.8c3.1,7.2,29.7,63.3,97.4,68.1l61.5,1.4c0,0,5.8,1.4,5.8-8.2c0-9.5-1.6-48.7-1.6-48.7s2.7-11.6-10.7-11.6
		s-49.1,0-49.1,0s-23.5-0.3-35.5-18.6c-1-1.5-1.9-3.2-2.7-4.9c-0.4-1.1-0.8-2.2-1.2-3.3c-0.4-1.1-0.7-2.2-1-3.3
		c-2.6-9.1-3-18.8,0.1-27.7c0.5-1.4,1.1-2.7,1.7-4c12.8-25.6,53.6-26.6,66-9.8c0,0,3.7,2.7,7-1c3.3-3.7,39.8-39.6,39.8-39.6
		S620.8,158.2,615.6,154.1z M603.5,160.2l-31.1,30.2h-3.8l-1.4-1.1c-14.6-11.2-61.8-12.5-75.2,23c-0.3,0.8-0.6,1.6-0.8,2.4
		c-3.6,10.9-2.8,23.1,1,33.8c0.3,1,0.7,1.9,1,2.8c13.4,33.8,51.9,32.5,51.9,32.5s35,0.5,42,0.5s5.6,6.3,5.6,6.3s-0.2,27.5,0,35.2
		c0.2,7.7-8.8,7.2-8.8,7.2l-53-0.9c-55.5-5.6-79.9-54.2-82.2-58.9c-2.3-4.7-0.7-11.5-0.7-11.5c15.3-38.6,5.6-79.7,4.5-84
		c-1.1-4.3,1.4-7.4,1.4-7.4c9.3-5.2,16.9-11.5,20.3-13.5c7.7-6.3,21-12.9,21-12.9c61.6-26.6,105.9,10.6,105.9,10.6
		C605.6,157,603.5,160.2,603.5,160.2z"/>
	<path class="st0" d="M785.1,151.9l-1.5-1.3c0,0-78.6-66.2-158.1,11.9c-59.5,73.9-3.2,150.4,42.8,170.5c0,0,21.8,10.3,36.6,10.3
		c14.9,0,65.3,1.4,65.3,1.4s10.4,3.1,10-7.9c-0.3-11.1-2.4-50.1-2.4-50.1s2.4-11.1-7.9-10l-54.2-1.4c0,0-0.6,0-1.7,0
		c-2.4,0-5.3-0.7-7.7-0.8c-1.1-0.2-2.3-0.5-3.5-0.8c-12.1-3.1-28.8-12.1-32-38c-0.2-1.6-0.3-3.3-0.4-5c0.9-7.1,2.7-14.2,7-20.5
		c0.9-1.3,1.8-2.6,2.8-3.8c16.8-19.8,49.3-15,60-4.1c0,0,3.8,3.8,7.3,0c3.5-3.8,41.1-40.4,41.1-40.4S794.2,158.1,785.1,151.9z
		 M775.7,159.9c-2.7,2.4-29.8,29-29.8,29s-1.4,3.5-8.9,0c-6.5-3-38.4-16.2-62.6,9.8c-1.3,1.4-2.5,2.8-3.8,4.5
		c-6.8,7.8-10,18.2-9.7,28.4c0,1.8,0,3.5,0.1,5.2c1.4,22.3,15.7,35.4,29.8,42.4c1.2,0.6,2.4,1.1,3.5,1.6c9.7,4.7,20.5,5.1,31.1,4.8
		c0.9,0,1.7,0,2.6,0c15.1,0,34.4,0,34.4,0s6.2-0.5,6.2,7.3c0,7.9,1.4,37.4,1.4,37.4c0,4.2-3.4,4.7-3.4,4.7l-65.3-2.4
		c-13.1-1.1-30.1-9.2-30.1-9.2c-41.2-18.1-91.7-87.2-38.4-153.8c26.4-27.7,53.6-33.3,76.5-34.4c30.3-1.4,56.3,14.1,63.4,19.4
		C772.7,154.7,778.4,157.4,775.7,159.9z"/>
	<g>
		<path class="st0" d="M140.3,339.8H81.4c-2.1,0-3.8-1.7-3.8-3.8V139.3h-29c-2.1,0-3.8-1.7-3.8-3.8V80.4c0-2.1,1.7-3.8,3.8-3.8h91.7
			c2.1,0,3.8,1.7,3.8,3.8V336C144.1,338.1,142.4,339.8,140.3,339.8z M85.2,332.3h51.4V84.1H52.4v47.6h29c2.1,0,3.8,1.7,3.8,3.8
			V332.3z"/>
	</g>
	<path class="st0" d="M713.4,210.2c14.9-0.4,22.8,11.5,27.2,15.1c4.4,3.6,5.8,1.4,5.8,1.4s62.3-60.7,66.2-64.7c4-4,1.8-5.4,1.8-5.4
		c-11.9-15.5-49.8-46.8-102.3-47.8s-84.9,29.6-84.9,29.6h-4.4c0,0-33.3-29.8-83.9-30.1c-50.6-0.4-87.7,31.5-91.6,34.3
		c-4,2.8-5.4,0.5-5.4,0.5c-25.4-54.3-81.3-92-146.1-92c-53.7,0-101.3,25.9-130.5,65.7l-0.4,0.9c-2.2,2.8-3.2,0.3-3.2,0.3
		s0-43.6,0-51.9s-6.3-6.7-6.3-6.7s-112.6,0-121.5,0c-8.9,0-8.3,6.7-8.3,6.7s0,74.6,0,82.9c0,8.3,6.9,8.1,6.9,8.1s17.1,0,22.4,0
		s4.4,5.6,4.4,5.6s0,183.4,0,188.4s4,4.6,4,4.6s85.9-0.4,92.8,0c6.9,0.4,5-6.3,5-6.3s-0.2-48,0-51.9c0.2-3.8,3.6-1.6,3.6-1.6
		c28.7,42.1,77.6,69.8,133.1,69.8c53.8,0,101.4-26,130.4-66l1.7-2.2c4.2,0,6.9,5.6,6.9,5.6c36.9,53.9,101.9,55.5,101.9,55.5l9.3,0.4
		c0,0,55.3,0.6,64.9,0.6c9.5,0,7.5-7.1,7.5-7.1s-1-27.8-1-31.3c0-3.6,3.8-0.2,3.8-0.2c39.3,41.9,104.9,40.1,104.9,40.1h63.5
		c9.1,0.8,6.3-7.7,6.3-7.7s-3.6-72.8-3.6-84.9c0-12.1-8.9-9.5-8.9-9.5s-49,0.4-72-0.4c-23-0.8-25.8-20.6-25.8-24.6
		C688.4,218.6,698.5,210.6,713.4,210.2z M677.5,230.8c1.8,38.2,38.8,37.9,38.8,37.9s56-0.3,63.2,0.3c7.2,0.6,5.1,8.1,5.1,8.1
		s3.6,64.4,3.6,69.3c0,4.8-5.1,5.1-5.1,5.1L717,351c-70.8-2.7-102.7-53.3-105.7-57.5c-3-4.2-2.4,3.6-2.4,3.6s1.5,33.1,1.8,44.3
		c0.3,11.1-5.4,8.1-5.4,8.1h-71.4c-70.8-8.1-96.7-61.7-100-68.1c-3.3-6.3-6.3,0.3-6.3,0.3c-43.7,75.6-124.1,73.8-131.9,73.8
		c-108.7-3-141.8-97.6-141.8-97.6c-1.4-0.9-1.6,1.2-1.6,1.2s0.2,72.9,0,80.6s-5.8,7.5-5.8,7.5s-65.8,0-72.2,0
		c-6.4,0-4.9-6.2-4.9-6.2s0-183.4,0-189.7s-7.5-4.8-7.5-4.8s-20.2,0-23.2,0c-2.9,0-2-5.3-2-5.3V69.1h115.9c0,0,0,81.3,0,85.2
		s1.4,2.8,1.4,2.8s34.1-91.5,134.9-94.8c114.8-2.4,146.4,91.8,148.8,95.6c2.3,3.8,6.9-0.4,6.9-0.4s39.5-39.7,89.6-39.7
		c50.7-3.1,83.2,28.7,87.6,31.6c4.3,2.9,6.1,0.4,6.1,0.4c41.2-35.6,80.2-31.2,80.2-31.2c54-2.7,87.5,32.1,91.3,35.4
		c3.8,3.3-0.5,7.6-0.5,7.6s-49.7,49.1-52.4,51.5c-2.7,2.4-5.7-0.3-5.7-0.3c-12.9-14.5-28.9-13.3-28.9-13.3
		C680.8,199.5,677.5,230.8,677.5,230.8z"/>
</g>
</svg>
