<svg width="720.51752" height="162.91525" viewBox="0 0 720.51752 162.91526" xmlns="http://www.w3.org/2000/svg"><defs><clipPath id="a"><path d="M0 144.697h595.28V0H0v144.697z"></path></clipPath></defs><path fill="#5a5a5a" d="M48.155 92.047h-21.38l10.37-57.93 11.01 57.93zM28.25 2L0 133.21h19.216l4.368-24.795H51.37l4.55 24.795h19.4L46.33 2h-18.08zM81.217 133.21h17.3V2h-17.3v131.21zM112.562 133.21h17.293V2h-17.293v131.21z"></path><g transform="matrix(1.25 0 0 -1.25 -10.48 171.37)" clip-path="url(#a)"><path fill="#5a5a5a" d="M143.08 51.617l-10.58 53.978h-14.65l16.773-70.66c.237-.947 1.43-5.835 1.43-8.648 0-6.442-3.35-7.48-11.36-7.48-1.058 0-2.178.012-3.513.034l-1.026.023V6.76h8.594c6.868 0 13.857 1.236 18.402 10.16 2.074 4.017 2.775 6.697 6.217 23.897l12.775 64.778h-14.485l-8.578-53.978zM218.103 29.067c18.297 0 22.555 9.775 24.17 17.122.878 3.96 1.044 7.402 1.044 21.653v1.015H229.34v-1.015c0-12.265 0-14.472-.558-16.976l-.066-.298c-.822-3.73-2.742-8.683-9.885-8.683-8.996 0-10.44 6.453-10.91 8.583l-.043.165c-.57 3.983-.867 24.632-.867 31.053 0 7.6 0 23.42.883 30.912.452 4.082 1.296 11.673 11.225 11.673 8.925 0 9.636-6.256 9.636-14.442v-8.736h13.962l.022.993c.137 7.833.154 14.242-1.048 19.35-2.703 11.54-13.426 15.655-22.572 15.655-21.723 0-24.64-15.092-25.634-20.244-.71-4.39-1.18-7.293-1.18-35.006 0-26.254.618-30.368 1.03-33.115 1-5.914 5.413-19.66 24.77-19.66M273.093 64.404c4.606 3.428 5.88 4.366 8.004 6.34v-15.73c0-5.448-.315-10.203-4.264-13.193-1.688-1.3-3.64-1.985-5.66-1.985-6.045 0-6.856 4.943-6.856 9.786 0 7.955 3.685 10.824 8.776 14.784m-5.268-35.193c7.668 0 11.74 3.884 14.006 7.238v-5.924h16.693l-.756 1.798c-2.695 2.185-3.122 3.354-3.122 14.673v34.848c0 10.083 0 14.254-4.794 19.207-4.737 5.064-10.756 5.715-15.466 5.715-13.493 0-18.435-6.156-20.21-11.352-1.264-3.95-1.192-12.312-1.066-14.938l.045-.96h12.72l-.105 1.103c-.144 1.622-.287 3.167-.287 5.307 0 4.446 0 9.488 7.735 9.488 7.187 0 7.86-4.49 7.882-11.385-5.587-5.175-7.01-6.134-16.855-12.732l-1.078-.728c-7.893-5.458-12.687-9.65-12.687-21.675 0-5.837.92-13.085 8.08-17.354 2.63-1.546 5.744-2.33 9.268-2.33M320.363 44.524c-2.085 4.17-2.085 13.382-2.085 20.11 0 14.065 0 15.543.43 18.897.232 4.436 1.655 11.883 8.473 11.883 3.763 0 6.124-2.14 7.03-6.366.848-3.685.848-12.058.848-19.45 0-.143-.143-14.957-.585-20.506-.242-4.147-1.654-9.11-7.005-9.11-3.078 0-5.67 1.664-7.105 4.544m-2.085-9.874c2.284-2.538 6.002-5.44 12.544-5.44 6.917 0 15.59 3.002 17.63 17.366.396 3.287.882 10.81.882 27.975 0 15.457-.85 19.583-2.89 23.51-2.913 5.54-8.34 8.705-14.893 8.705-7.06 0-11.11-3.442-13.713-6.443v5.13h-13.69V7.345h14.13V34.65zM372.37 76.15c0 9.267.02 11.606.827 14.132.723 2.328 2.295 5.417 7.49 5.417 7.613 0 7.877-7.382 8.02-11.342l.013-8.208h-16.35zm7.733-46.94c10.437 0 17.233 4.105 20.21 12.202 1.37 3.95 1.37 7.634 1.37 12.72v1.016h-12.82v-1.016c0-8.583-1.335-13.558-8.176-13.558-6.342 0-7.69 4.666-8.163 9.234l-.022.21c-.21 1.92-.177 6.608-.154 11.153.01 1.17.022 2.35.022 3.476h29.312v1.015c0 18.554 0 20.485-.595 24.203-2.46 16.758-16.737 16.758-21.425 16.758-19.517 0-21.127-14.617-21.127-30.91 0-29.377.563-30.9 1.964-34.63 3.132-7.876 9.73-11.87 19.603-11.87M425.732 135.493h-13.834V30.523h13.834v104.97zM450.81 135.493h-13.835V30.523h13.834v104.97zM475.73 133.297h-13.536v-17.045h13.536v17.045zM475.73 105.595h-13.536v-75.07h13.536v75.07zM500.95 78.632c0 9.587.65 16.924 8.76 16.924 7.292 0 7.59-5.053 7.59-16.483v-48.55h13.84V82.86c0 10.094 0 23.906-16.18 23.906-7.402 0-11.903-3.52-14.583-6.343v5.03H487.27V30.525h13.68v48.108zM555.78 73.966c0 16.063.354 21.15 7.733 21.15 4.524 0 6.642-2.892 6.863-9.38.143-3.77.143-12.277.143-18.475 0-21.39-.31-26.983-7.734-26.983-6.123 0-6.686 4.91-6.862 12.433-.133 4.457-.144 16.347-.144 21.256m7.15-44.755c15.058 0 18.753 7.845 20.22 13.736 1.634 6.123 1.645 23.433 1.645 24.172 0 21.984 0 24.29-2.58 29.608-3.256 6.663-9.6 10.04-18.845 10.04-16.57 0-19.318-10.327-20.233-13.736-1.08-4.226-1.632-13.283-1.632-26.938 0-18.17.11-22.66 3.045-27.89 3.166-5.792 9.697-8.99 18.38-8.99"></path></g></svg>