<svg width="140" height="64" viewBox="0 0 140 64" fill="none" xmlns="http://www.w3.org/2000/svg">
<g clip-path="url(#clip0_273_706)">
<path d="M107.048 37.7356V4.89175C107.048 3.63817 106.863 2.57047 106.05 1.948C103.99 2.70015 99.1254 4.70588 99.1254 4.70588C99.1254 4.70588 101.306 6.71161 101.306 8.34126V18.8281C99.62 17.7388 97.5038 16.6408 95.4435 16.6754C91.8262 16.7359 88.8928 19.0572 87.3357 20.6264C84.6518 23.3237 81.6581 27.5859 81.8474 31.8481C82.1442 38.6131 85.155 40.3119 86.2131 41.3148C87.2712 42.3176 89.581 44.0078 90.8928 44.9502C92.2047 45.8925 92.6391 46.0179 94.2607 45.0755C95.6887 44.2499 99.6329 42.0583 101.96 40.3076L104.867 45.3262C104.867 45.3262 109.048 43.5107 110.42 41.8162C108.799 40.4373 107.052 39.2442 107.052 37.7399M95.0779 41.0641C91.895 40.3767 88.5917 36.1102 87.7186 34.6708C86.8454 33.227 85.7873 28.1522 88.282 24.0759C90.7767 19.9996 95.9554 20.3756 96.4543 20.6912C96.85 20.9419 99.4092 22.8482 101.319 24.5946V38.0252C99.9125 39.5641 97.5769 41.6044 95.0822 41.0641" fill="#2D2D2B"/>
<path d="M49.7822 22.0356L57.1975 17.272C57.1975 17.272 59.2577 18.9794 59.2577 21.7762V33.8365C59.2577 35.0771 59.318 37.7097 62.4019 39.5338C64.4106 40.7226 66.5182 40.3076 67.4989 39.5814C68.4795 38.8552 69.972 37.9777 69.972 36.7327V21.1494C69.972 20.2157 68.5828 18.4045 67.7569 17.6826H75.9464V37.7183C75.9464 39.2486 77.3357 40.9776 79.5508 41.492C77.4906 43.6145 74.0926 46.1389 74.0926 46.1389C74.0926 46.1389 70.3334 41.237 69.8688 40.4632C68.2215 41.6001 61.4815 46.0481 61.4815 46.0481C61.4815 46.0481 56.948 43.8954 54.7286 40.8955C53.3866 39.08 53.3866 36.3696 53.3866 35.2328C53.3866 34.0959 53.2834 24.6724 53.2834 24.05C53.2834 23.4275 52.5091 22.1869 49.7822 22.0313" fill="#2D2D2B"/>
<path d="M136.632 37.7356V4.89175C136.632 3.63817 136.447 2.57047 135.634 1.948C133.574 2.70015 128.709 4.70588 128.709 4.70588C128.709 4.70588 130.894 6.71161 130.894 8.34126V18.8281C129.208 17.7388 127.092 16.6408 125.031 16.6754C121.414 16.7359 118.485 19.0572 116.924 20.6264C114.24 23.3237 111.246 27.5859 111.435 31.8481C111.732 38.6131 114.743 40.3119 115.801 41.3148C116.863 42.3176 119.169 44.0078 120.481 44.9502C121.793 45.8925 122.227 46.0179 123.849 45.0755C125.277 44.2499 129.221 42.0583 131.548 40.3076L134.455 45.3262C134.455 45.3262 138.636 43.5107 140.004 41.8162C138.382 40.4373 136.636 39.2442 136.636 37.7399M124.662 41.0641C121.479 40.3767 118.175 36.1102 117.302 34.6708C116.429 33.227 115.371 28.1522 117.866 24.0759C120.36 19.9996 125.539 20.3756 126.038 20.6912C126.434 20.9419 128.993 22.8482 130.903 24.5946V38.0252C129.496 39.5641 127.161 41.6044 124.666 41.0641" fill="#2D2D2B"/>
<path d="M36.8955 19.5759C40.4182 16.9434 44.2635 13.2129 44.8527 9.58187C45.9754 2.62233 38.0869 0.551758 38.0869 0.551758C35.0589 1.48114 35.0675 1.62379 28.5942 3.97533C21.9789 6.37875 20.3187 10.9435 20.3187 13.3469V26.462C20.3187 27.8236 20.181 32.7472 18.4046 34.969C16.482 37.3811 13.8496 38.6044 11.8539 39.3436C16.9078 35.0987 16.8132 23.6393 16.8132 23.6393C16.7745 17.2719 15.3163 10.0444 19.7466 6.22313C22.2886 4.03153 24.8134 2.89898 25.8113 2.51858C27.3855 1.91773 26.7275 0.348591 25.093 1.16558C24.1037 1.66269 20.5423 2.9595 14.8819 1.91773C9.23014 0.871637 7.6688 -0.0663875 4.69237 1.39468C2.39982 2.51426 0.666436 5.57473 0.0470616 8.23751C-0.331445 9.86716 1.5912 9.40031 1.69873 8.33693C1.87938 6.57327 3.53964 4.53296 5.82358 5.0733C8.19355 5.63525 11.5571 7.47671 14.7873 6.61217C17.6949 5.82977 18.2283 5.06897 18.3315 5.19433C18.4304 5.31537 18.1637 5.38021 17.4541 5.93351C16.4562 6.71592 9.97425 9.798 9.87532 17.3454C9.74628 27.0023 11.028 28.4158 11.2646 30.2573C11.5055 32.0988 11.6732 36.9445 8.18925 40.407C4.16332 44.4098 3.20845 44.7902 2.37402 47.2714C1.53958 49.7527 2.89446 51.8967 4.36547 51.8578C5.36335 51.8319 6.35693 50.2152 5.63863 49.2166C4.92033 48.2181 4.40419 45.7023 6.63651 44.1245C6.45156 44.2974 6.90319 43.9386 6.63651 44.1245C12.013 40.3508 23.3639 41.9891 28.1899 45.6893C34.1685 40.5453 41.0677 39.4474 45.9711 38.1289V25.5585C45.9711 20.0125 39.8504 19.5673 36.8912 19.5673M32.8954 3.48687C32.8954 3.48687 37.6568 4.98684 38.6461 8.69139C40.6763 16.3123 33.2137 20.7042 29.4716 22.1436C28.4221 22.5499 27.4888 22.7056 26.6844 22.7272V10.2951C26.6844 5.25053 32.8997 3.48687 32.8997 3.48687M39.4461 37.9344C38.6891 38.0165 35.1363 38.9978 32.9255 40.2557C26.8522 36.9964 20.8735 37.7831 16.8605 38.4056C25.1876 34.2558 26.6844 30.4389 26.6844 26.1464V24.6162C28.9813 24.1969 29.5706 23.9332 31.0674 23.4318C31.7427 23.207 33.5277 22.2387 35.6008 20.8036C37.7428 21.1062 39.7515 23.0643 39.7515 24.707C39.7515 26.4706 39.4461 33.8495 39.4461 37.9344Z" fill="#2D2D2B"/>
<path d="M86.8457 56.2582C87.0134 56.2582 87.1381 56.2712 87.2199 56.2971C87.3876 56.349 87.5166 56.4095 87.6027 56.4743C87.6887 56.5348 87.8177 56.6689 87.9855 56.8634V60.9137C87.9855 61.2423 87.9554 61.4497 87.8909 61.5405C87.7876 61.6875 87.6113 61.7653 87.3661 61.7653H87.1639V61.9252H89.1812V61.7653H88.9748C88.7511 61.7653 88.5833 61.7048 88.4758 61.5838C88.3984 61.493 88.3597 61.2725 88.3597 60.9137V57.3302L92.1792 62.0203H92.334V57.1141C92.334 56.7856 92.3641 56.5781 92.4286 56.4873C92.5319 56.336 92.7039 56.2625 92.9491 56.2625H93.1555V56.1026H91.1383V56.2625H91.3404C91.5684 56.2625 91.7361 56.323 91.8394 56.4441C91.9211 56.5348 91.9598 56.7553 91.9598 57.1141V60.4728L88.4199 56.1069H86.8457V56.2668V56.2582ZM83.3101 56.8634C83.7015 57.3518 83.895 58.0953 83.895 59.0939C83.895 60.0103 83.7187 60.6846 83.3617 61.1126C83.0047 61.5405 82.5574 61.7523 82.0154 61.7523C81.5036 61.7523 81.095 61.5578 80.7853 61.1688C80.381 60.6587 80.1788 59.9238 80.1788 58.9728C80.1788 58.0219 80.3723 57.3432 80.7638 56.8634C81.0777 56.4787 81.495 56.2841 82.0111 56.2841C82.566 56.2841 82.9961 56.4787 83.3101 56.8677M80.1401 56.7294C79.5121 57.3129 79.1981 58.0694 79.1981 58.9901C79.1981 59.9109 79.4691 60.6328 80.011 61.2034C80.553 61.774 81.224 62.0592 82.0197 62.0592C82.8154 62.0592 83.4821 61.7653 84.037 61.1817C84.5918 60.5982 84.8714 59.8633 84.8714 58.9815C84.8714 58.0997 84.5961 57.408 84.0456 56.8331C83.495 56.2582 82.8412 55.9729 82.0885 55.9729C81.3358 55.9729 80.6777 56.2236 80.1358 56.7337M72.6216 56.5565C72.9485 56.4743 73.2409 56.4311 73.499 56.4311C74.1829 56.4311 74.7421 56.6645 75.1765 57.1271C75.6109 57.5896 75.8303 58.225 75.8303 59.029C75.8303 59.8331 75.6109 60.4599 75.1765 60.9267C74.7421 61.3936 74.1915 61.627 73.5334 61.627C73.2883 61.627 72.9872 61.5881 72.6216 61.5059V56.5565ZM73.5549 61.9296C74.6818 61.9296 75.5163 61.627 76.0668 61.0175C76.5572 60.4728 76.8023 59.7985 76.8023 58.9858C76.8023 58.385 76.6647 57.8489 76.3894 57.3864C76.1142 56.9282 75.7528 56.5954 75.3012 56.4008C74.8496 56.202 74.1915 56.1026 73.3227 56.1026H70.9656V56.2625H71.185C71.4043 56.2625 71.5678 56.3274 71.6796 56.4527C71.757 56.5435 71.8 56.7726 71.8 57.1357V60.8964C71.8 61.225 71.7699 61.4368 71.7054 61.5319C71.6022 61.6918 71.4301 61.7696 71.185 61.7696H70.9656V61.9296H73.5549ZM62.6299 56.2668C62.7976 56.2668 62.9223 56.2798 63.0041 56.3057C63.1718 56.3576 63.3008 56.4181 63.3869 56.483C63.4729 56.5435 63.6019 56.6775 63.7697 56.872V60.9224C63.7697 61.2509 63.7396 61.4584 63.6751 61.5492C63.5718 61.6961 63.3955 61.774 63.1503 61.774H62.9482V61.9339H64.9654V61.774H64.759C64.5353 61.774 64.3675 61.7134 64.26 61.5924C64.1826 61.5016 64.1439 61.2812 64.1439 60.9224V57.3389L67.9634 62.029H68.1182V57.1227C68.1182 56.7942 68.1483 56.5867 68.2128 56.4959C68.3161 56.3446 68.4881 56.2712 68.7333 56.2712H68.9397V56.1112H66.9225V56.2712H67.1246C67.3526 56.2712 67.5203 56.3317 67.6236 56.4527C67.7053 56.5435 67.744 56.7639 67.744 57.1227V60.4815L64.1998 56.1155H62.6256V56.2755L62.6299 56.2668ZM59.0943 56.872C59.4857 57.3605 59.6792 58.104 59.6792 59.1025C59.6792 60.0189 59.5029 60.6933 59.1459 61.1212C58.7889 61.5492 58.3416 61.761 57.7996 61.761C57.2878 61.761 56.8791 61.5665 56.5695 61.1774C56.1651 60.6673 55.963 59.9325 55.963 58.9815C55.963 58.0305 56.1565 57.3518 56.548 56.872C56.8619 56.4873 57.2749 56.2928 57.7953 56.2928C58.3502 56.2928 58.7803 56.4873 59.0943 56.8763M55.9243 56.738C55.2963 57.3216 54.9823 58.0781 54.9823 58.9988C54.9823 59.9195 55.2533 60.6414 55.7952 61.212C56.3372 61.7826 57.0082 62.0679 57.8039 62.0679C58.5996 62.0679 59.2663 61.774 59.8212 61.1904C60.376 60.6068 60.6556 59.872 60.6556 58.9901C60.6556 58.1083 60.3803 57.4167 59.8298 56.8418C59.2792 56.2668 58.6254 55.9815 57.877 55.9815C57.1286 55.9815 56.4705 56.2323 55.9243 56.7423M52.1521 61.1212C52.0059 61.2898 51.8424 61.4065 51.6618 61.4714C51.4811 61.5362 51.1714 61.5708 50.7241 61.5708H50.3026C49.9284 61.5708 49.709 61.5578 49.6359 61.5276C49.5628 61.4973 49.5112 61.4541 49.4768 61.3936C49.4295 61.3028 49.408 61.1428 49.408 60.9051V57.2481C49.408 56.9023 49.4295 56.6818 49.4768 56.591C49.5241 56.5003 49.6058 56.4225 49.7305 56.3619C49.8553 56.3014 50.0703 56.2755 50.3757 56.2755V56.1155H47.752V56.2755H47.9713C48.1907 56.2755 48.3542 56.3403 48.466 56.4657C48.5434 56.5565 48.5864 56.7856 48.5864 57.1487V60.9051C48.5864 61.2379 48.5563 61.4497 48.4961 61.5405C48.3886 61.7005 48.2165 61.7783 47.9713 61.7783H47.752V61.9382H52.2381L52.7328 60.3561L52.5908 60.3258C52.4446 60.6846 52.2941 60.9526 52.1478 61.1169" fill="#2D2D2B"/>
</g>
<defs>
<clipPath id="clip0_273_706">
<rect width="140" height="64" fill="white"/>
</clipPath>
</defs>
</svg>
