<?xml version="1.0" encoding="utf-8"?>
<!-- Hand Picked Hotels logo -->
<svg version="1.1" id="Layer_1" xmlns="http://www.w3.org/2000/svg" xmlns:xlink="http://www.w3.org/1999/xlink" x="0px" y="0px"
	 viewBox="0 0 400 108" style="enable-background:new 0 0 400 108;" xml:space="preserve">
<style type="text/css">
	.st0{fill-rule:evenodd;clip-rule:evenodd;}
</style>
<g>
	<g>
		<path d="M179.1,48.8c0-6.7,0-7.9-0.1-9.2c-0.1-1.5-0.4-2.1-1.8-2.4c-0.3-0.1-1.1-0.1-1.5-0.1c-0.2,0-0.3-0.1-0.3-0.3
			c0-0.3,0.2-0.3,0.7-0.3c1.9,0,4.5,0.1,4.8,0.1c0.9,0,3.4-0.1,5.4-0.1c5.4,0,7.3,1.8,8,2.4c0.9,0.9,2.1,2.8,2.1,5.1
			c0,6.1-4.5,10.2-10.6,10.2c-0.2,0-0.7,0-0.9,0c-0.2,0-0.5-0.1-0.5-0.3c0-0.3,0.3-0.4,1.2-0.4c4.2,0,7.4-3,7.4-7
			c0-1.4-0.1-4.3-2.4-6.6c-2.3-2.3-4.9-2.1-5.9-2.1c-0.7,0-1.5,0.1-1.8,0.3c-0.3,0.1-0.3,0.4-0.3,0.8v17.6c0,4.1,0,7.5,0.2,9.3
			c0.1,1.2,0.4,2.2,1.7,2.4c0.6,0.1,1.5,0.2,1.9,0.2c0.3,0,0.3,0.1,0.3,0.3c0,0.2-0.2,0.3-0.7,0.3c-2.4,0-5.1-0.1-5.3-0.1
			c-0.1,0-2.8,0.1-4.1,0.1c-0.5,0-0.7-0.1-0.7-0.3c0-0.1,0.1-0.3,0.3-0.3c0.4,0,0.9-0.1,1.3-0.2c0.9-0.2,1.1-1.1,1.2-2.4
			c0.2-1.8,0.2-5.2,0.2-9.3V48.8z"/>
		<path d="M220.4,56.3c0,4.1,0,7.5,0.2,9.3c0.1,1.2,0.4,2.2,1.7,2.4c0.6,0.1,1.5,0.2,1.9,0.2c0.3,0,0.3,0.1,0.3,0.3
			c0,0.2-0.2,0.3-0.7,0.3c-2.4,0-5.1-0.1-5.3-0.1c-0.2,0-2.9,0.1-4.2,0.1c-0.5,0-0.7-0.1-0.7-0.3c0-0.1,0.1-0.3,0.3-0.3
			c0.4,0,0.9-0.1,1.3-0.2c0.9-0.2,1.1-1.1,1.2-2.4c0.2-1.8,0.2-5.2,0.2-9.3v-7.5c0-6.7,0-7.9-0.1-9.2c-0.1-1.5-0.5-2.2-1.5-2.4
			c-0.5-0.1-1-0.2-1.3-0.2c-0.2,0-0.3-0.1-0.3-0.3c0-0.3,0.2-0.3,0.7-0.3c1.4,0,4.1,0.1,4.3,0.1c0.2,0,2.9-0.1,4.2-0.1
			c0.5,0,0.7,0.1,0.7,0.3c0,0.2-0.2,0.3-0.3,0.3c-0.3,0-0.6,0-1.1,0.1c-1.2,0.2-1.5,0.9-1.6,2.4c-0.1,1.4-0.1,2.6-0.1,9.2V56.3z"/>
	</g>
	<g>
		<path d="M246,64.7c-4.2-3.7-5.2-8.6-5.2-12.7c0-2.9,1-7.9,4.8-11.7c2.6-2.6,6.5-4.6,13.1-4.6c1.7,0,4.1,0.1,6.2,0.5
			c1.6,0.3,3,0.6,4.4,0.6c0.5,0,0.6,0.2,0.6,0.5c0,0.3-0.1,0.9-0.2,2.4c-0.1,1.4-0.1,3.8-0.1,4.4c0,0.6-0.1,0.9-0.4,0.9
			c-0.3,0-0.3-0.3-0.3-0.9c0-1.7-0.7-3.4-1.8-4.4c-1.5-1.3-4.8-2.4-8.6-2.4c-5.7,0-8.4,1.7-9.9,3.1c-3.1,3-3.9,6.8-3.9,11.2
			c0,8.2,6.3,15.7,15.5,15.7c3.2,0,5.7-0.4,7.5-2.1c0.9-0.9,1.5-2.8,1.6-3.6c0.1-0.5,0.2-0.6,0.4-0.6c0.2,0,0.3,0.3,0.3,0.6
			c0,0.3-0.5,4-0.9,5.5c-0.3,0.8-0.3,0.9-1.1,1.2c-1.7,0.7-5,1-7.7,1C253.8,69.3,249.4,67.8,246,64.7z"/>
		<path d="M291.1,48.8c0-6.7,0-7.9-0.1-9.2c-0.1-1.5-0.4-2.1-1.8-2.4c-0.3-0.1-1.1-0.1-1.5-0.1c-0.2,0-0.3-0.1-0.3-0.3
			c0-0.3,0.2-0.3,0.7-0.3c1.9,0,4.5,0.1,4.7,0.1c0.4,0,2.9-0.1,4.2-0.1c0.5,0,0.7,0.1,0.7,0.3c0,0.2-0.2,0.3-0.3,0.3
			c-0.3,0-0.6,0-1.1,0.1c-1.2,0.2-1.5,0.9-1.6,2.4c-0.1,1.4-0.1,2.6-0.1,9.2v2.6h0.2c0.7-0.8,8.5-8.7,10-10.4
			c1.2-1.2,2.3-2.4,2.3-3.1c0-0.5-0.2-0.8-0.6-0.9c-0.2-0.1-0.4-0.2-0.4-0.3c0-0.2,0.2-0.3,0.5-0.3c0.9,0,2.2,0.1,3.2,0.1
			c0.2,0,3-0.1,4.1-0.1c0.5,0,0.6,0.1,0.6,0.3c0,0.2-0.1,0.3-0.4,0.3c-0.6,0-1.5,0.2-2.4,0.6c-1.8,0.8-2.7,1.8-4.6,3.7
			c-1.1,1-8.5,8.3-9.4,9.4c1.1,1.2,10,10.4,11.8,12.1c3.6,3.3,4.3,4,6.4,4.9c1.1,0.5,2.4,0.6,2.7,0.6c0.3,0,0.6,0.1,0.6,0.3
			c0,0.2-0.2,0.3-0.9,0.3h-2.2c-1.2,0-2,0-3-0.1c-2.3-0.2-3.3-1.2-5.2-2.6c-1.9-1.6-11-11.4-13.1-13.9h-0.2v4.2c0,4.1,0,7.5,0.2,9.3
			c0.1,1.2,0.4,2.2,1.7,2.4c0.6,0.1,1.3,0.2,1.7,0.2c0.3,0,0.3,0.1,0.3,0.3c0,0.2-0.2,0.3-0.7,0.3c-2.1,0-4.6-0.1-4.9-0.1
			c-0.3,0-2.8,0.1-4.1,0.1c-0.5,0-0.7-0.1-0.7-0.3c0-0.1,0.1-0.3,0.3-0.3c0.4,0,0.9-0.1,1.3-0.2c0.9-0.2,1.1-1.1,1.2-2.4
			c0.2-1.8,0.2-5.2,0.2-9.3V48.8z"/>
		<path d="M334.1,48.8c0-6.7,0-7.9-0.1-9.2c-0.1-1.5-0.4-2.1-1.8-2.4c-0.3-0.1-1.1-0.1-1.5-0.1c-0.2,0-0.3-0.1-0.3-0.3
			c0-0.3,0.2-0.3,0.7-0.3c1,0,2.2,0,3.1,0l1.8,0.1c0.3,0,8.8,0,9.8,0c0.8,0,1.5-0.1,1.8-0.2c0.2,0,0.4-0.2,0.6-0.2
			c0.1,0,0.2,0.2,0.2,0.4c0,0.3-0.2,0.8-0.3,2c0,0.4-0.1,2.3-0.2,2.8c0,0.2-0.1,0.5-0.3,0.5c-0.3,0-0.3-0.2-0.3-0.6
			c0-0.3,0-1-0.3-1.5c-0.3-0.7-0.7-1.2-3-1.5c-0.7-0.1-5.4-0.1-5.9-0.1c-0.2,0-0.3,0.1-0.3,0.4v11.8c0,0.3,0,0.4,0.3,0.4
			c0.6,0,5.8,0,6.8-0.1c1-0.1,1.6-0.2,2-0.6c0.3-0.3,0.5-0.6,0.6-0.6c0.1,0,0.2,0.1,0.2,0.3c0,0.3-0.2,1-0.3,2.4
			c-0.1,0.9-0.2,2.4-0.2,2.7c0,0.3,0,0.8-0.3,0.8c-0.2,0-0.3-0.2-0.3-0.4c0-0.4,0-0.9-0.2-1.4c-0.2-0.6-0.6-1.3-2.2-1.5
			c-1.2-0.1-5.4-0.2-6.1-0.2c-0.2,0-0.3,0.1-0.3,0.3v3.8c0,1.5,0,6.4,0,7.3c0.1,3,0.8,3.5,5,3.5c1.1,0,3,0,4.1-0.5
			c1.1-0.5,1.6-1.3,1.9-3.1c0.1-0.5,0.2-0.6,0.4-0.6c0.3,0,0.3,0.3,0.3,0.6c0,0.3-0.3,3.3-0.6,4.2c-0.3,1.1-0.6,1.1-2.3,1.1
			c-3.2,0-5.6-0.1-7.2-0.1c-1.7-0.1-2.7-0.1-3.3-0.1c-0.1,0-0.8,0-1.7,0c-0.9,0-1.8,0.1-2.5,0.1c-0.5,0-0.7-0.1-0.7-0.3
			c0-0.1,0.1-0.3,0.3-0.3c0.4,0,0.9-0.1,1.3-0.2c0.9-0.2,1.1-1.1,1.2-2.4c0.2-1.8,0.2-5.2,0.2-9.3V48.8z"/>
		<path d="M371,48.8c0-6.7,0-7.9-0.1-9.2c-0.1-1.5-0.4-2.1-1.8-2.4c-0.3-0.1-1.1-0.1-1.5-0.1c-0.2,0-0.3-0.1-0.3-0.3
			c0-0.3,0.2-0.3,0.7-0.3c1.9,0,4.6,0.1,4.8,0.1c0.5,0,3.2-0.1,5.8-0.1c4.3,0,12.1-0.4,17.2,4.9c2.1,2.2,4.2,5.8,4.2,10.9
			c0,5.4-2.2,9.5-4.6,12.1c-1.8,1.9-5.7,4.9-13,4.9c-1.8,0-4.1-0.1-6-0.3c-1.9-0.1-3.3-0.3-3.6-0.3c-0.1,0-0.8,0-1.7,0
			c-0.9,0-1.8,0.1-2.5,0.1c-0.5,0-0.7-0.1-0.7-0.3c0-0.1,0.1-0.3,0.3-0.3c0.4,0,0.9-0.1,1.3-0.2c0.9-0.2,1.1-1.1,1.2-2.4
			c0.2-1.8,0.2-5.2,0.2-9.3V48.8z M374.6,53.4c0,4.5,0,8.5,0.1,9.3c0,1.1,0.1,2.8,0.5,3.3c0.6,0.8,2.2,1.7,7.3,1.7
			c4,0,7.7-1.5,10.2-4c2.2-2.2,3.4-6.3,3.4-10.2c0-5.4-2.4-8.9-4.1-10.8c-4-4.2-8.9-4.8-14-4.8c-0.9,0-2.4,0.1-2.8,0.3
			c-0.4,0.2-0.5,0.4-0.5,0.9c0,1.5,0,5.8,0,9.1V53.4z"/>
	</g>
	<g>
		<path d="M154.6,100.9c0,2.2,0,4.1,0.1,5.1c0.1,0.7,0.2,1.2,0.9,1.3c0.3,0,0.8,0.1,1.1,0.1c0.1,0,0.2,0.1,0.2,0.1
			c0,0.1-0.1,0.2-0.4,0.2c-1.3,0-2.8-0.1-2.9-0.1c-0.1,0-1.6,0.1-2.3,0.1c-0.3,0-0.4,0-0.4-0.2c0-0.1,0-0.1,0.2-0.1
			c0.2,0,0.5,0,0.7-0.1c0.5-0.1,0.6-0.6,0.7-1.3c0.1-1,0.1-2.8,0.1-5.1v-2.5c0-0.1-0.1-0.1-0.1-0.1h-9.9c-0.1,0-0.1,0-0.1,0.1v2.5
			c0,2.2,0,4.1,0.1,5.1c0.1,0.7,0.2,1.2,0.9,1.3c0.3,0,0.8,0.1,1.1,0.1c0.1,0,0.2,0.1,0.2,0.1c0,0.1-0.1,0.2-0.4,0.2
			c-1.3,0-2.8-0.1-2.9-0.1c-0.1,0-1.6,0.1-2.3,0.1c-0.3,0-0.4,0-0.4-0.2c0-0.1,0-0.1,0.2-0.1c0.2,0,0.5,0,0.7-0.1
			c0.5-0.1,0.6-0.6,0.7-1.3c0.1-1,0.1-2.8,0.1-5.1v-4.1c0-3.6,0-4.3,0-5.1c0-0.8-0.2-1.2-1-1.3c-0.2,0-0.6-0.1-0.8-0.1
			c-0.1,0-0.2,0-0.2-0.1c0-0.1,0.1-0.2,0.4-0.2c1.1,0,2.5,0.1,2.6,0.1c0.1,0,1.6-0.1,2.3-0.1c0.3,0,0.4,0,0.4,0.2
			c0,0.1-0.1,0.1-0.2,0.1c-0.2,0-0.3,0-0.6,0.1c-0.6,0.1-0.8,0.5-0.9,1.3c0,0.7,0,1.4,0,5.1v0.5c0,0.1,0.1,0.1,0.1,0.1h9.9
			c0.1,0,0.1,0,0.1-0.1v-0.5c0-3.6,0-4.3,0-5.1c0-0.8-0.2-1.2-1-1.3c-0.2,0-0.6-0.1-0.8-0.1c-0.1,0-0.2,0-0.2-0.1
			c0-0.1,0.1-0.2,0.4-0.2c1.1,0,2.5,0.1,2.6,0.1c0.1,0,1.6-0.1,2.3-0.1c0.3,0,0.4,0,0.4,0.2c0,0.1-0.1,0.1-0.2,0.1
			c-0.2,0-0.3,0-0.6,0.1c-0.6,0.1-0.8,0.5-0.9,1.3c0,0.7,0,1.4,0,5.1V100.9z"/>
		<path d="M174.2,89.7c5.3,0,9.2,3.3,9.2,8.8c0,5.2-3.7,9.6-9.3,9.6c-6.4,0-9.1-5-9.1-9.2C165,95,167.7,89.7,174.2,89.7z
			 M174.7,107.1c2.1,0,6.5-1.2,6.5-8c0-5.6-3.4-8.6-7.1-8.6c-3.9,0-6.8,2.6-6.8,7.7C167.2,103.6,170.5,107.1,174.7,107.1z"/>
		<path d="M198.8,100.9c0,2.2,0,4.1,0.1,5.1c0.1,0.7,0.2,1.2,0.9,1.3c0.3,0,0.8,0.1,1.1,0.1c0.1,0,0.2,0.1,0.2,0.1
			c0,0.1-0.1,0.2-0.4,0.2c-1.3,0-2.8-0.1-2.9-0.1c-0.1,0-1.6,0.1-2.3,0.1c-0.3,0-0.4,0-0.4-0.2c0-0.1,0-0.1,0.2-0.1
			c0.2,0,0.5,0,0.7-0.1c0.5-0.1,0.6-0.6,0.7-1.3c0.1-1,0.1-2.8,0.1-5.1V91l-3.5,0c-1.5,0-2,0.2-2.4,0.7c-0.3,0.4-0.3,0.6-0.4,0.7
			c-0.1,0.2-0.1,0.2-0.2,0.2c-0.1,0-0.1-0.1-0.1-0.2c0-0.2,0.5-2.2,0.5-2.4c0-0.1,0.1-0.4,0.2-0.4c0.2,0,0.4,0.2,1,0.3
			c0.7,0.1,1.6,0.1,1.9,0.1h8.8c0.8,0,1.3,0,1.7-0.1c0.4,0,0.6-0.1,0.7-0.1c0.1,0,0.1,0.1,0.1,0.3c0,0.7-0.1,2.3-0.1,2.6
			c0,0.2-0.1,0.3-0.2,0.3c-0.1,0-0.2-0.1-0.2-0.4l0-0.3c-0.1-0.7-0.6-1.2-2.9-1.3l-3,0V100.9z"/>
		<path d="M214.6,96.8c0-3.6,0-4.3,0-5.1c-0.1-0.8-0.2-1.2-1-1.3c-0.2,0-0.6-0.1-0.8-0.1c-0.1,0-0.2,0-0.2-0.1
			c0-0.1,0.1-0.2,0.4-0.2c0.5,0,1.2,0,1.7,0l1,0c0.2,0,4.8,0,5.4,0c0.4,0,0.8-0.1,1-0.1c0.1,0,0.2-0.1,0.3-0.1
			c0.1,0,0.1,0.1,0.1,0.2c0,0.2-0.1,0.4-0.2,1.1c0,0.2-0.1,1.3-0.1,1.5c0,0.1-0.1,0.3-0.2,0.3c-0.1,0-0.2-0.1-0.2-0.3
			c0-0.2,0-0.6-0.1-0.8c-0.2-0.4-0.4-0.7-1.7-0.8c-0.4,0-3-0.1-3.2-0.1c-0.1,0-0.1,0.1-0.1,0.2v6.5c0,0.2,0,0.2,0.1,0.2
			c0.3,0,3.2,0,3.7,0c0.6,0,0.9-0.1,1.1-0.3c0.2-0.2,0.3-0.3,0.4-0.3c0.1,0,0.1,0,0.1,0.2c0,0.1-0.1,0.5-0.2,1.3
			c0,0.5-0.1,1.3-0.1,1.5c0,0.2,0,0.4-0.2,0.4c-0.1,0-0.2-0.1-0.2-0.2c0-0.2,0-0.5-0.1-0.8c-0.1-0.3-0.3-0.7-1.2-0.8
			c-0.6-0.1-3-0.1-3.4-0.1c-0.1,0-0.2,0.1-0.2,0.2v2.1c0,0.8,0,3.5,0,4c0.1,1.6,0.4,1.9,2.7,1.9c0.6,0,1.6,0,2.2-0.3
			c0.6-0.3,0.9-0.7,1.1-1.7c0.1-0.3,0.1-0.4,0.2-0.4c0.1,0,0.1,0.2,0.1,0.4c0,0.2-0.2,1.8-0.3,2.3c-0.2,0.6-0.4,0.6-1.3,0.6
			c-1.8,0-3,0-4-0.1c-0.9,0-1.5-0.1-1.8-0.1c0,0-0.4,0-0.9,0c-0.5,0-1,0-1.4,0c-0.3,0-0.4,0-0.4-0.2c0-0.1,0-0.1,0.2-0.1
			c0.2,0,0.5,0,0.7-0.1c0.5-0.1,0.6-0.6,0.7-1.3c0.1-1,0.1-2.8,0.1-5.1V96.8z"/>
		<path d="M235.6,100.9c0,3.4,0.1,4.9,0.5,5.4c0.4,0.4,1,0.5,2.8,0.5c1.2,0,2.3,0,2.8-0.7c0.3-0.4,0.5-1,0.6-1.4
			c0-0.2,0.1-0.3,0.2-0.3c0.1,0,0.1,0.1,0.1,0.4s-0.2,1.7-0.3,2.3c-0.2,0.5-0.2,0.6-1.5,0.6c-1.7,0-2.9,0-3.9-0.1
			c-1,0-1.7-0.1-2.4-0.1c-0.1,0-0.5,0-1,0c-0.5,0-1,0-1.3,0c-0.3,0-0.4,0-0.4-0.2c0-0.1,0-0.1,0.2-0.1c0.2,0,0.5,0,0.7-0.1
			c0.5-0.1,0.6-0.6,0.7-1.3c0.1-1,0.1-2.8,0.1-5.1v-4.1c0-3.6,0-4.3,0-5.1c0-0.8-0.2-1.2-1-1.3c-0.2,0-0.6-0.1-0.8-0.1
			c-0.1,0-0.2,0-0.2-0.1c0-0.1,0.1-0.2,0.4-0.2c1.1,0,2.5,0.1,2.7,0.1c0.1,0,1.8-0.1,2.5-0.1c0.3,0,0.4,0,0.4,0.2
			c0,0.1-0.1,0.1-0.2,0.1c-0.2,0-0.5,0-0.8,0.1c-0.7,0.1-0.9,0.5-0.9,1.3c0,0.7,0,1.4,0,5.1V100.9z"/>
		<path d="M250.7,107.4c-0.3-0.2-0.4-0.3-0.4-0.9c0-1.2,0.1-2.1,0.1-2.5c0-0.3,0.1-0.4,0.2-0.4c0.1,0,0.2,0.1,0.2,0.3
			c0,0.2,0,0.5,0.1,0.9c0.4,1.7,1.9,2.4,3.5,2.4c2.2,0,3.4-1.6,3.4-3.1c0-1.6-0.7-2.5-2.7-4.2l-1.1-0.9c-2.5-2-3-3.5-3-5.1
			c0-2.5,1.9-4.2,4.8-4.2c0.9,0,1.6,0.1,2.2,0.2c0.4,0.1,0.6,0.1,0.8,0.1s0.2,0,0.2,0.2c0,0.1-0.1,0.9-0.1,2.5c0,0.4,0,0.5-0.2,0.5
			c-0.1,0-0.2-0.1-0.2-0.3c0-0.3-0.2-0.9-0.3-1.2c-0.1-0.3-0.8-1.2-2.9-1.2c-1.6,0-2.9,1-2.9,2.7c0,1.3,0.6,2.2,2.9,3.9l0.7,0.5
			c2.8,2.2,3.4,3.6,3.4,5.5c0,1-0.4,2.7-2,3.9c-1,0.7-2.3,1-3.5,1C252.7,108,251.6,107.8,250.7,107.4z"/>
	</g>
	<g>
		<path d="M399.7,98.5h-126v-1.3h126V98.5z M125.1,98.5H0.3v-1.3h124.7V98.5z"/>
	</g>
	<path class="st0" d="M255.9,103.1"/>
	<path d="M73.6,0.3c0,0-4.1-1.5-6.8,2.5c0,0-13.1,16.9-22.9,36.7c0,0-0.1,0.2-0.2,0.4c-7.5-0.1-15.1,0.6-21.5,1.4
		c0.9-1.4,1.8-2.9,2.8-4.4c0,0,7.7-12.1,20.8-28.7c0,0,2.3-2.7,0.1-4.1c0,0-2.9-1.2-5.7,2c0,0-17.9,23.8-23.5,36c-6.6,1-11,2-11,2
		c-5.5,0.7-5.5,4.4-5.5,4.4L0,48.8c0.7,1.9,3.6,0.8,3.6,0.8c3.6-1.1,7.2-2.1,10.6-2.8C10,54.8,1.5,71.1,0.5,74.1
		c0,0-1.1,3.6,1.2,2.8c0,0,2.7-1.5,3.6-4.4c0,0,2.6-8.2,14.1-26.9C30.1,43.5,38,43,38,43c1.4-0.1,2.8-0.1,4.1-0.1
		c-3.4,6.7-10.9,22.4-13.5,34.9c0,0-1.9,7.7,1.2,7.4c0,0,2.1-1.1,1.6-4.7c0,0,8.1-26.3,15.1-37.6c12.9,0.4,19.2,3,19.2,3
		c2.1,0.1,1.6-1.6,1.6-1.6C65.7,43,54,40.6,54,40.6c-1.8-0.2-3.7-0.4-5.6-0.5c2.1-3.6,15.7-26.8,22.9-34.4C71.3,5.7,76,1.5,73.6,0.3
		z"/>
	<path d="M136.5,54.4c9.1-7.5,21.4-6.5,21.4-6.5c2.2-3.3,2.3-7.7,2.3-7.7c1-17.2-13.1-26.4-13.1-26.4c-13-8.5-23.1-2.9-23.1-2.9
		c-11.2,6.2-5.5,21.3-5.5,21.3c4.1,10.3,14.1,14.8,14.1,14.8c1.2,0.7,1.1,1,1.1,1c-0.6,0.4-1.3,0-1.3,0c-3.5-1-9-5.6-9-5.6
		c-13-11.4-7.9-25-7.9-25c4.6-10.9,17.6-9.8,17.6-9.8c22,2,28.4,20.3,28.4,20.3c6.6,21.8-11.8,36.6-11.8,36.6
		c-12.9,11.2-21.3,8.3-21.3,8.3c-2.6-0.7-3-3.4-3-3.4c-13.2,3.2-14.7-9.6-14.7-9.6c-0.5-1.9-0.7-5.8-0.7-5.8
		c-0.8-2.8-4.1,0.2-4.1,0.2c-5,3.3-12.3,12.2-12.3,12.2c-3.9,4.6-6,3.5-6,3.5c-1.6-0.2-0.5-3.8-0.5-3.8l1.9-3.6
		c-7.3,5.3-10.6,5.7-10.6,5.7c-9.5,1.9-8-7.3-8-7.3l0.6-3.5C65,63,57.3,67.5,57.3,67.5c-6.6,3.5-8.9,2.1-8.9,2.1
		c-1.5-1.9,0.7-5.5,0.7-5.5c8.6-13.6,21-15.6,21-15.6c9.6-2.8,10.9,0.2,10.9,0.2c1,1.8-3.8,5.4-3.8,5.4c-3.2,10.7,1,11.3,1,11.3
		c5.2,1.4,13.3-7.8,13.3-7.8c0.9-2.6,7.3-12.4,7.3-12.4c2.2-2.9,4.6-1.7,4.6-1.7c1.9,1.2,0.5,3.4,0.5,3.4c-0.5,1.3-6.2,8.9-6.2,8.9
		c-1.7,1.7-1,2.3-1,2.3c0.8,0.3,2.3-1.1,2.3-1.1l7.9-6.3c4-3.3,6.8-1.9,6.8-1.9c2.4,0,1.7,9.6,1.7,9.6c1.1,14.2,10.4,9,10.4,9
		C128,60.8,136.5,54.4,136.5,54.4z M71.8,54.1c0,0,1.6-2,1-2.7c0,0-0.7-0.6-4.4,0.7c0,0-9.8,3.1-14.7,11c0,0-1,1.2-0.6,2.3
		c0,0,0.7,0.9,3.8-0.5C57,64.8,68,59,71.8,54.1z M139.7,55.9c-10.7,7.5-7.3,12.6-7.3,12.6c1.6,2.2,5.6,0.5,5.6,0.5
		c14.3-5.9,18.9-16.4,18.9-16.4c-3.4,0.5-5.8-1.2-5.8-1.2C146.4,51.8,139.7,55.9,139.7,55.9z"/>
</g>
</svg>
