<svg xmlns="http://www.w3.org/2000/svg" viewBox="0 0 361.05 82.25">
	<g fill="#343842">
		<path d="M100.9 77.12V64.63l-5.47 12.49h-2.04l-5.43-12.49v12.49h-2.2V61.08h3.01l5.65 13.05 5.7-13.05h2.96v16.04h-2.18zM119.86 77.12h-2.13V66.24h2.08v1.56c.79-1.36 2.08-1.88 3.35-1.88 2.6 0 3.89 1.88 3.89 4.3v6.9h-2.13v-6.54c0-1.51-.63-2.73-2.53-2.73-1.67 0-2.53 1.33-2.53 2.98v6.29zM144.95 68.16v8.96h-2.19v-8.96h-2.02v-1.92h2.02v-1.83c0-2.42 1.61-3.73 3.57-3.73.72 0 1.18.16 1.27.23v1.9c-.11-.04-.38-.14-.93-.14-.74 0-1.72.36-1.72 1.85v1.72h2.62v1.92h-2.62zM174.82 66.24h2.35v1.92h-2.35v5.65c0 .99.41 1.49 1.52 1.49a4 4 0 0 0 .84-.09v1.81c-.18.07-.72.21-1.45.21-1.85 0-3.03-1.13-3.03-3.1v-5.97h-2.08v-1.92h2.26V62.8l1.94-.72v4.16zM183.5 77.46c-2.53 0-4.07-1.9-4.07-4.37v-6.85h2.13v6.54c0 1.49.68 2.8 2.47 2.8 1.72 0 2.58-1.13 2.58-2.78v-6.56h2.13v10.88h-2.02v-1.31c-.6 1.13-1.96 1.65-3.22 1.65zM133.78 77.46c-2.53 0-4.07-1.9-4.07-4.37v-6.85h2.13v6.54c0 1.49.68 2.8 2.47 2.8 1.72 0 2.58-1.13 2.58-2.78v-6.56H139v10.88h-2.02v-1.31c-.58 1.13-1.94 1.65-3.2 1.65zM197.92 68.39c-.32-.05-.63-.07-.93-.07-1.79 0-2.99.95-2.99 3.35v5.45h-2.13V66.24h2.08v1.9c.79-1.67 2.15-2.08 3.25-2.08.3 0 .59.04.7.07v2.26zM200.77 61.63c.69 0 1.23.55 1.23 1.23 0 .67-.54 1.21-1.23 1.21-.67 0-1.21-.54-1.21-1.21 0-.69.54-1.23 1.21-1.23zm-1.04 15.49V66.24h2.1v10.88h-2.1zM207.12 77.12h-2.13V66.24h2.08v1.56c.79-1.36 2.08-1.88 3.35-1.88 2.6 0 3.89 1.88 3.89 4.3v6.9h-2.13v-6.54c0-1.51-.63-2.73-2.53-2.73-1.67 0-2.53 1.33-2.53 2.98v6.29zM229.54 74.6c.71 0 1.27.56 1.27 1.27s-.56 1.25-1.27 1.25-1.25-.54-1.25-1.25.54-1.27 1.25-1.27zM249.13 72.64h-7.1l-1.7 4.48h-2.37l6.38-16.04h2.56l6.38 16.04h-2.4l-1.75-4.48zm-6.32-2.06h5.52l-2.78-7.19-2.74 7.19zM289.25 77.12V60.74h2.13v16.37h-2.13zM304.02 74.02c-.61 1.92-2.35 3.44-4.89 3.44-2.92 0-5.48-2.13-5.48-5.82 0-3.42 2.47-5.74 5.2-5.74 3.35 0 5.22 2.31 5.22 5.7 0 .27-.02.54-.04.68h-8.19c.04 1.95 1.45 3.3 3.28 3.3 1.76 0 2.65-.97 3.05-2.19l1.85.63zm-2.16-3.46c-.04-1.56-1.06-2.78-2.98-2.78-1.79 0-2.87 1.38-2.96 2.78h5.94zM286.86 74.02c-.61 1.92-2.35 3.44-4.89 3.44-2.92 0-5.48-2.13-5.48-5.82 0-3.42 2.47-5.74 5.2-5.74 3.35 0 5.22 2.31 5.22 5.7 0 .27-.02.54-.04.68h-8.19c.04 1.95 1.45 3.3 3.28 3.3 1.76 0 2.65-.97 3.05-2.19l1.85.63zm-2.15-3.46c-.04-1.56-1.06-2.78-2.98-2.78-1.79 0-2.87 1.38-2.96 2.78h5.94zM312.38 68.39c-.32-.05-.63-.07-.93-.07-1.79 0-2.99.95-2.99 3.35v5.45h-2.13V66.24h2.08v1.9c.79-1.67 2.15-2.08 3.25-2.08.3 0 .59.04.7.07v2.26zM342.49 74.02c-.61 1.92-2.35 3.44-4.89 3.44-2.92 0-5.48-2.13-5.48-5.82 0-3.42 2.47-5.74 5.2-5.74 3.35 0 5.22 2.31 5.22 5.7 0 .27-.02.54-.04.68h-8.19c.04 1.95 1.45 3.3 3.28 3.3 1.76 0 2.65-.97 3.05-2.19l1.85.63zm-2.15-3.46c-.04-1.56-1.06-2.78-2.98-2.78-1.79 0-2.87 1.38-2.96 2.78h5.94zM352.44 75.47c-.52 1.04-1.67 1.95-3.37 1.95-3.19 0-5.16-2.53-5.16-5.77 0-3.08 2.08-5.7 5.16-5.7 1.92 0 2.96.95 3.32 1.83v-7.03h2.09v16.37h-2.04V75.47zm-3.17.07c1.94 0 3.14-1.7 3.14-3.94s-1.17-3.78-3.12-3.78c-1.95 0-3.21 1.58-3.21 3.82 0 2.24 1.15 3.9 3.19 3.9zM357.09 74.6c.71 0 1.27.56 1.27 1.27s-.56 1.25-1.27 1.25-1.25-.54-1.25-1.25.54-1.27 1.25-1.27zM356.92 61.05v1.33h-.34v-1.33h-.5v-.3h1.34v.3h-.5zm2.28 1.33v-1.04l-.45 1.04h-.26l-.44-1.03v1.03h-.34v-1.63h.44l.48 1.14.48-1.14h.42v1.63h-.33z"/>
	</g>
	<path fill="#343842" d="M328.4 66.24h2.35v1.92h-2.35v5.65c0 .99.41 1.49 1.52 1.49a4 4 0 0 0 .84-.09v1.81c-.18.07-.72.21-1.45.21-1.85 0-3.03-1.13-3.03-3.1v-5.97h-2.08v-1.92h2.26V62.8l1.94-.72v4.16zM224.82 66.24v1.52c-.54-1.08-1.67-1.72-3.35-1.72-2.99 0-5 2.35-5 5.29 0 3.07 2.1 5.27 5 5.27 1.53 0 2.64-.71 3.21-1.63l-.03.26v.78c0 2.01-1.12 3.07-3.17 3.07-1.36 0-2.48-.4-3.56-1.06l-.85 1.72c1.29.78 2.82 1.19 4.47 1.19 1.8 0 3.2-.44 4.11-1.35.83-.83 1.27-2.09 1.27-3.77v-9.59h-2.1zm-3.03 8.57c-1.92 0-3.14-1.36-3.14-3.48 0-2.1 1.27-3.48 3.14-3.48 1.83 0 3.1 1.38 3.1 3.48s-1.27 3.48-3.1 3.48z"/>
	<g fill="#343842">
		<path d="M110.37 65.9c-2.13 0-3.8 1.22-4.28 2.99l2 .5c.29-.98 1.05-1.68 2.33-1.68 1.65 0 2.35.88 2.35 1.94 0 .38-.18.73-.84.81l-2.94.43c-1.88.27-3.3 1.36-3.3 3.3 0 1.72 1.42 3.26 3.64 3.26 1.95 0 3.03-1.04 3.51-1.81v1.47h2.06v-7.24c-.01-2.11-1.28-3.97-4.53-3.97zm2.39 6.56c0 2.37-1.4 3.21-3.14 3.21-1.09 0-1.77-.77-1.77-1.58 0-.97.68-1.49 1.58-1.63l3.32-.5v.5zM153.09 65.9c-2.13 0-3.8 1.22-4.28 2.99l2 .5c.29-.98 1.05-1.68 2.33-1.68 1.65 0 2.35.88 2.35 1.94 0 .38-.18.73-.84.81l-2.94.43c-1.88.27-3.3 1.36-3.3 3.3 0 1.72 1.42 3.26 3.64 3.26 1.95 0 3.03-1.04 3.51-1.81v1.47h2.06v-7.24c0-2.11-1.27-3.97-4.53-3.97zm2.4 6.56c0 2.37-1.4 3.21-3.14 3.21-1.09 0-1.77-.77-1.77-1.58 0-.97.68-1.49 1.58-1.63l3.32-.5v.5zM318.25 65.9c-2.13 0-3.8 1.22-4.28 2.99l2 .5c.29-.98 1.05-1.68 2.33-1.68 1.65 0 2.35.88 2.35 1.94 0 .38-.18.73-.84.81l-2.94.43c-1.88.27-3.3 1.36-3.3 3.3 0 1.72 1.42 3.26 3.64 3.26 1.95 0 3.03-1.04 3.51-1.81v1.47h2.06v-7.24c0-2.11-1.27-3.97-4.53-3.97zm2.4 6.56c0 2.37-1.4 3.21-3.14 3.21-1.09 0-1.77-.77-1.77-1.58 0-.97.68-1.49 1.58-1.63l3.32-.5v.5z"/>
	</g>
	<path fill="#343842" d="M165.03 75.49c-1.77 0-3.33-1.34-3.33-3.82 0-2.54 1.58-3.8 3.3-3.8 1.73 0 2.51 1.07 2.83 2.08l1.9-.83c-.53-1.58-1.98-3.21-4.73-3.21-3.1 0-5.47 2.37-5.47 5.77 0 3.3 2.33 5.79 5.5 5.79 2.7 0 4.21-1.67 4.8-3.18l-1.86-.81c-.3.84-1.06 2.01-2.94 2.01zM259.26 75.49c-1.77 0-3.33-1.34-3.33-3.82 0-2.54 1.58-3.8 3.3-3.8 1.73 0 2.51 1.07 2.83 2.08l1.9-.83c-.53-1.58-1.98-3.21-4.73-3.21-3.1 0-5.47 2.37-5.47 5.77 0 3.3 2.33 5.79 5.5 5.79 2.7 0 4.21-1.67 4.8-3.18l-1.86-.81c-.3.84-1.06 2.01-2.94 2.01zM270.61 75.49c-1.77 0-3.33-1.34-3.33-3.82 0-2.54 1.58-3.8 3.3-3.8 1.73 0 2.51 1.07 2.83 2.08l1.9-.83c-.53-1.58-1.98-3.21-4.73-3.21-3.1 0-5.47 2.37-5.47 5.77 0 3.3 2.33 5.79 5.5 5.79 2.7 0 4.21-1.67 4.8-3.18l-1.86-.81c-.3.84-1.06 2.01-2.94 2.01z"/>
	<path fill="#429DCA" d="M357.8 20.05a1.93 1.93 0 0 1-1.95-1.93c0-1.07.87-1.92 1.95-1.92 1.1 0 1.94.85 1.94 1.92 0 1.09-.87 1.93-1.94 1.93zm0-3.47a1.545 1.545 0 1 0 0 3.09c.85 0 1.54-.69 1.54-1.55 0-.84-.69-1.54-1.54-1.54zm.86 2.6c.03.04.02.09-.03.09h-.35c-.05 0-.09-.02-.11-.07-.13-.27-.25-.54-.39-.81h-.28v.8c0 .04-.02.09-.08.09h-.28c-.06 0-.08-.03-.08-.09v-2.1c0-.06.03-.08.1-.08h.74c.36 0 .71.19.71.67 0 .25-.1.52-.39.64l.44.86zm-.83-1.81h-.33v.64h.33c.16 0 .35-.04.35-.33 0-.24-.16-.31-.35-.31zM199.31 19.17h-8.74v29.52c0 .61-.22 1.04-.99 1.04h-4.12c-.77 0-1.05-.33-1.05-1.04V19.17h-10.69l1.95-5.44h25.7l-2.06 5.44z"/>
	<g fill="#429DCA">
		<path d="M157.28 50.22c-13.28 0-14.48-10.57-14.48-18.98 0-6.56 1.52-17.95 14.53-17.95 12.91 0 14.75 9.27 14.75 17.95.01 8.41-1.35 18.98-14.8 18.98zm.05-31.61c-6.18 0-8.13 4.82-8.13 13.18 0 8.13 1.63 13.07 8.13 13.07 6.62 0 8.52-4.66 8.52-13.07 0-8.68-1.9-13.18-8.52-13.18zM217.06 50.22c-13.28 0-14.48-10.57-14.48-18.98 0-6.56 1.52-17.95 14.53-17.95 12.9 0 14.75 9.27 14.75 17.95 0 8.41-1.35 18.98-14.8 18.98zm.05-31.61c-6.18 0-8.13 4.82-8.13 13.18 0 8.13 1.63 13.07 8.13 13.07 6.62 0 8.51-4.66 8.51-13.07.01-8.68-1.89-13.18-8.51-13.18zM244.88 44.42h15.51c.65 0 .98.22.98.92v3.41c0 .65-.27.98-1.03.98h-20.5c-.81 0-1.08-.33-1.08-.98V13.73h5.1c.7 0 1.03.33 1.03 1.09v29.6z"/>
	</g>
	<g>
		<path fill="#429DCA" d="M295.85 48.76l-11.19-33.89c-.22-.71-.44-1.14-1.47-1.14h-5.88l-11.33 34.92c-.27.81-.05 1.09.6 1.09h4.24c.76 0 1.2-.27 1.46-1.14l2.44-7.82h11.15l-3.3-5.1h-6.33l4.46-15.53h.22l8.26 28.46c.27.76.49 1.14 1.35 1.14h4.78c.59-.02.7-.39.54-.99z"/>
	</g>
	<g>
		<path fill="#429DCA" d="M321.01 30.83l-.05-.11c3.53-1.68 4.34-5.38 4.34-7.44 0-5.76-3.69-9.56-10.91-9.56h-13.52V48.7c0 .65.27 1.03 1.2 1.03h13.79c5.59 0 10.48-3.86 10.48-10.27-.01-2.71-.99-7.16-5.33-8.63zm-6.68 13.58H307V18.99h6.46c3.8 0 5.43 2.01 5.43 4.78 0 2.66-2.06 4.67-4.83 4.67h-6.16l2.05 5.21h4.38c3.91 0 5.6 2.55 5.6 5.43-.01 2.89-1.2 5.33-5.6 5.33z"/>
	</g>
	<g>
		<path fill="#429DCA" d="M139.13 48.59l-7.1-14.37c4.72-1.79 6.45-6.07 6.45-9.93 0-7.48-5.48-10.57-11.06-10.57H114.3V48.7c0 .7.27 1.03 1.08 1.03h4.01c.76 0 1.03-.43 1.03-1.08V19.09h5.75c3.14 0 5.96 1.14 5.96 5.21 0 4.94-3.41 5.75-6.07 5.75h-4.74l2.01 5.15h2.63l6.34 13.61c.33.76.76.92 1.57.92h4.66c.6 0 .87-.48.6-1.14z"/>
	</g>
	<g>
		<path fill="#429DCA" d="M98.13 13.73H85.76V48.7c0 .7.33 1.03 1.08 1.03h4.07c.76 0 .97-.43.97-1.03V19.04h5.53c3.69 0 6.13 1.79 6.13 5.64 0 3.31-1.57 5.91-5.91 5.91h-4.85l2.04 5.15h3.3c9.28 0 11.66-6.24 11.66-11.22.01-7.21-5.09-10.79-11.65-10.79z"/>
	</g>
	<g>
		<path fill="#429DCA" d="M332.1 48.62c-1.24-.49-1.24-.97-1.08-1.68l.49-2.22c.22-.92.54-.92 1.46-.81 2.81.32 7.09.76 9.58.76 4.6 0 6.93-1.68 6.93-4.76 0-3.9-1.57-4.87-6.44-5.74-6.39-1.25-12.07-2.76-12.07-10.18 0-6.82 4.65-10.55 12.29-10.55 2.06 0 6.82.16 9.96 1.46 1.19.49 1.19.97 1.08 1.68l-.54 2.22c-.22.87-.54.92-1.57.87-2.44-.32-5.47-.7-8.66-.7-4.6 0-6.22 1.79-6.22 4.82 0 3.41 1.73 3.9 6.44 4.76 6.22 1.25 11.96 2.6 11.96 10.82 0 8.17-6.22 10.82-13.15 10.82-2.72 0-7.64-.43-10.46-1.57z"/>
	</g>
	<g>
		<path fill="#429DCA" d="M36.64 80.92L1.34 61.55V20.67L36.64 1.3l35.3 19.38v40.87l-35.3 19.37zM9.15 56.93l27.49 15.09 27.49-15.09V25.3L36.64 10.21 9.15 25.3v31.63z"/>
		<path fill="#429DCA" d="M55.77 26.2L17.51 47.17v8.85l38.26-20.98z"/>
		<path fill="#85BD41" d="M17.51 31.17v8.84l19.13-10.49v-8.83z"/>
		<path fill="#343842" d="M55.77 51.05v-8.84L36.64 52.7v8.83z"/>
	</g>
</svg>